<?xml version="1.0" encoding="utf-8"?>
<!-- Generator: Adobe Illustrator 17.0.0, SVG Export Plug-In . SVG Version: 6.00 Build 0)  -->
<!DOCTYPE svg PUBLIC "-//W3C//DTD SVG 1.1//EN" "http://www.w3.org/Graphics/SVG/1.1/DTD/svg11.dtd">

<svg version="1.1" id="logo" xmlns="http://www.w3.org/2000/svg" xmlns:xlink="http://www.w3.org/1999/xlink" x="0px" y="0px"
	 width="120px" height="150px" viewBox="0 0 120 150" enable-background="new 0 0 120 150" xml:space="preserve">
<path fill="#EEEEEE" d="M54.174,95.947c-3.189,0.332-2.832,1.939-0.338,2.615c7.042,3.18,13.632,9.669,13.181,21.341
	c8.884-2.832,22.017-0.611,29.356,1.062C90.821,109.86,76.77,92.479,54.174,95.947z"/>
<path fill="#EEEEEE" d="M107.865,63.267c-8.932,8.208-15.451,29.549-14.195,36.023c-15.692-9.274-32.977-9.081-44.952-6.015
	c-2.994,0.845-3.738-0.997-0.386-3.404C68.514,73.503,97.319,62.947,107.865,63.267z"/>
<path fill="#EEEEEE" d="M72.908,27.779c5.046,7.124,19.313,19.989,38.627,24.721C77.833,59.839,43.042,86.497,34.93,97.023
	c-3.281,4.098-8.206,4.992-7.457,0.695C30.129,79.925,53.787,44.582,72.908,27.779z"/>
<path fill="#EEEEEE" d="M15.483,17.446c7.725,2.028,31.449,6.953,58.656-1.376C54.753,36.76,19.86,80.408,22.966,110.772
	c0.355,3.941-2.277,5.944-4.087,2.709C7.242,92.865,8.691,40.429,15.483,17.446z"/>
<path fill="#EEEEEE" d="M43.326,99.968c-9.849,0-17.833,7.984-17.833,17.833c0,9.849,7.984,17.833,17.833,17.833
	c9.849,0,17.833-7.984,17.833-17.833C61.159,107.952,53.175,99.968,43.326,99.968z M41.957,110.913c0-0.633,0.516-1.148,1.149-1.148
	h0.44c0.634,0,1.149,0.516,1.149,1.148v6.84c0,0.634-0.516,1.149-1.149,1.149h-0.44c-0.634,0-1.149-0.516-1.149-1.149V110.913z
	 M43.326,126.484c-4.111,0-7.456-3.345-7.456-7.456c0-2.315,1.048-4.46,2.877-5.884c0.077-0.074,0.161-0.14,0.25-0.195
	c0,0,0.573-0.223,0.781-0.223c0.819,0,1.486,0.667,1.486,1.486c0,0.551-0.302,1.053-0.788,1.313
	c-1.027,0.814-1.658,2.108-1.658,3.503c0,2.485,2.022,4.508,4.508,4.508s4.508-2.022,4.508-4.508c0-1.394-0.63-2.688-1.73-3.55
	c-0.414-0.209-0.718-0.713-0.718-1.266c0-0.819,0.667-1.486,1.486-1.486c0.208,0,0.771,0.217,0.771,0.217
	c0.094,0.057,0.181,0.124,0.261,0.2c1.828,1.425,2.877,3.569,2.877,5.885C50.782,123.14,47.437,126.484,43.326,126.484z"/>
</svg>
