<?xml version="1.0" encoding="utf-8"?>
<!-- Generator: Adobe Illustrator 17.0.0, SVG Export Plug-In . SVG Version: 6.00 Build 0)  -->
<!DOCTYPE svg PUBLIC "-//W3C//DTD SVG 1.1//EN" "http://www.w3.org/Graphics/SVG/1.1/DTD/svg11.dtd">
<svg version="1.1" id="logo" xmlns="http://www.w3.org/2000/svg" xmlns:xlink="http://www.w3.org/1999/xlink" x="0px" y="0px"
	 width="120px" height="150px" viewBox="0 0 120 150" enable-background="new 0 0 120 150" xml:space="preserve">
<path fill="#EEEEEE" d="M54.174,95.947c-3.189,0.332-2.832,1.939-0.338,2.615c7.042,3.18,13.632,9.669,13.181,21.341
	c8.884-2.832,22.017-0.611,29.356,1.062C90.821,109.86,76.77,92.479,54.174,95.947z"/>
<path fill="#EEEEEE" d="M107.865,63.267c-8.932,8.208-15.451,29.549-14.195,36.023c-15.692-9.274-32.977-9.081-44.952-6.015
	c-2.994,0.845-3.738-0.997-0.386-3.404C68.514,73.503,97.319,62.947,107.865,63.267z"/>
<path fill="#EEEEEE" d="M72.908,27.779c5.046,7.124,19.313,19.989,38.627,24.721C77.833,59.839,43.042,86.497,34.93,97.023
	c-3.281,4.098-8.206,4.992-7.457,0.695C30.129,79.925,53.787,44.582,72.908,27.779z"/>
<path fill="#EEEEEE" d="M15.483,17.446c7.725,2.028,31.449,6.953,58.656-1.376C54.753,36.76,19.86,80.408,22.966,110.772
	c0.355,3.941-2.277,5.944-4.087,2.709C7.242,92.865,8.691,40.429,15.483,17.446z"/>
<path fill="#EEEEEE" d="M43.326,99.968c-9.849,0-17.833,7.984-17.833,17.833c0,9.849,7.984,17.833,17.833,17.833
	c9.849,0,17.833-7.984,17.833-17.833C61.159,107.952,53.175,99.968,43.326,99.968z M41.844,104.685c0-0.611,0.495-1.107,1.107-1.107
	h0.751c0.611,0,1.107,0.495,1.107,1.107v11.661c0,0.611-0.495,1.107-1.107,1.107h-0.751c-0.611,0-1.107-0.495-1.107-1.107V104.685z
	 M43.326,130.378c-6.549,0-11.858-5.309-11.858-11.858c0-3.811,1.798-7.202,4.592-9.371l0.002,0.002
	c0.306-0.321,0.738-0.521,1.216-0.521c0.929,0,1.681,0.753,1.681,1.681c0,0.643-0.362,1.202-0.893,1.485
	c-1.995,1.563-3.279,3.994-3.279,6.725c0,4.716,3.823,8.538,8.538,8.538c4.716,0,8.538-3.823,8.538-8.538
	c0-2.73-1.282-5.16-3.275-6.722c-0.534-0.282-0.898-0.842-0.898-1.487c0-0.928,0.753-1.681,1.681-1.681
	c0.479,0,0.911,0.201,1.217,0.522l0.003-0.003c2.794,2.169,4.592,5.56,4.592,9.371C55.185,125.069,49.876,130.378,43.326,130.378z"
	/>
<g>
	<radialGradient id="SVGID_1_" cx="438.017" cy="172.0351" r="146.6496" gradientUnits="userSpaceOnUse">
		<stop  offset="0" style="stop-color:#484848"/>
		<stop  offset="1" style="stop-color:#373737"/>
	</radialGradient>
	<path fill="url(#SVGID_1_)" d="M452.201,61.257l-0.017,0.016c-1.683-1.768-4.058-2.871-6.691-2.871
		c-5.104,0-9.242,4.138-9.242,9.242c0,3.548,2.001,6.627,4.936,8.176c10.959,8.592,18.005,21.949,18.005,36.956
		c0,25.924-21.015,46.938-46.938,46.938c-25.924,0-46.938-21.014-46.938-46.938c0-15.015,7.054-28.378,18.023-36.97
		c2.92-1.554,4.907-4.626,4.907-8.163c0-5.104-4.138-9.242-9.241-9.242c-2.632,0-5.005,1.102-6.688,2.866l-0.011-0.011
		c-15.359,11.927-25.244,30.567-25.244,51.518c0,36.004,29.187,65.191,65.191,65.191c36.004,0,65.191-29.187,65.191-65.191
		C477.445,91.824,467.559,73.184,452.201,61.257z"/>
	<path fill="#48484A" d="M410.188,106.908h4.13c3.36,0,6.084-2.724,6.084-6.084V36.718c0-3.36-2.724-6.084-6.084-6.084h-4.13
		c-3.36,0-6.084,2.724-6.084,6.084v64.106C404.104,104.184,406.828,106.908,410.188,106.908z"/>
</g>
</svg>
